/'
' Copyright (c) 2022. AxonIQ
'
' Licensed under the Apache License, Version 2.0 (the "License");
' you may not use this file except in compliance with the License.
' You may obtain a copy of the License at
'
'    http://www.apache.org/licenses/LICENSE-2.0
'
' Unless required by applicable law or agreed to in writing, software
' distributed under the License is distributed on an "AS IS" BASIS,
' WITHOUT WARRANTIES OR CONDITIONS OF ANY KIND, either express or implied.
' See the License for the specific language governing permissions and
' limitations under the License.
'/

@startuml Heartbeat Monitor
[*]->Disabled
Disabled-->Enabled: Enable
Enabled-->Paused: Pause
Paused->Enabled: Enable, Resume
Paused->Disabled: Disable
Enabled->Disabled: Disable
Disabled->Disabled: Disable, Resume, Pause
Enabled->Enabled: Enable, Resume
Paused->Paused: Pause
Enabled->Enabled: Check, CheckSucceeded, CheckFailed, ReceiveServerHeartbeat
@enduml